<svg xmlns="http://www.w3.org/2000/svg" xmlns:xlink="http://www.w3.org/1999/xlink" width="500" zoomAndPan="magnify" viewBox="0 0 375 374.999991" height="500" preserveAspectRatio="xMidYMid meet" version="1.0"><defs><clipPath id="d8d714cdc9"><path d="M 32.550781 73 L 81 73 L 81 158 L 32.550781 158 Z M 32.550781 73 " clip-rule="nonzero"/></clipPath><clipPath id="1b1440aa03"><path d="M 32.472656 1.273438 L 356.457031 4.667969 L 352.441406 387.898438 L 28.460938 384.503906 Z M 32.472656 1.273438 " clip-rule="nonzero"/></clipPath><clipPath id="61288d8c8c"><path d="M 32.550781 183 L 80 183 L 80 312 L 32.550781 312 Z M 32.550781 183 " clip-rule="nonzero"/></clipPath><clipPath id="eabf83fde9"><path d="M 32.472656 1.273438 L 356.457031 4.667969 L 352.441406 387.898438 L 28.460938 384.503906 Z M 32.472656 1.273438 " clip-rule="nonzero"/></clipPath><clipPath id="24d049ef1c"><path d="M 98 38 L 150 38 L 150 231 L 98 231 Z M 98 38 " clip-rule="nonzero"/></clipPath><clipPath id="5a9622182a"><path d="M 32.472656 1.273438 L 356.457031 4.667969 L 352.441406 387.898438 L 28.460938 384.503906 Z M 32.472656 1.273438 " clip-rule="nonzero"/></clipPath><clipPath id="48ab7cdc25"><path d="M 96 256 L 147 256 L 147 349 L 96 349 Z M 96 256 " clip-rule="nonzero"/></clipPath><clipPath id="e45500e5a7"><path d="M 32.472656 1.273438 L 356.457031 4.667969 L 352.441406 387.898438 L 28.460938 384.503906 Z M 32.472656 1.273438 " clip-rule="nonzero"/></clipPath><clipPath id="1cd31920a9"><path d="M 167 5.722656 L 219 5.722656 L 219 171 L 167 171 Z M 167 5.722656 " clip-rule="nonzero"/></clipPath><clipPath id="5d9969547c"><path d="M 32.472656 1.273438 L 356.457031 4.667969 L 352.441406 387.898438 L 28.460938 384.503906 Z M 32.472656 1.273438 " clip-rule="nonzero"/></clipPath><clipPath id="e1528c68ea"><path d="M 165 197 L 217 197 L 217 369.472656 L 165 369.472656 Z M 165 197 " clip-rule="nonzero"/></clipPath><clipPath id="5ff98b86b4"><path d="M 32.472656 1.273438 L 356.457031 4.667969 L 352.441406 387.898438 L 28.460938 384.503906 Z M 32.472656 1.273438 " clip-rule="nonzero"/></clipPath><clipPath id="10bfde9fcb"><path d="M 236 40 L 287 40 L 287 136 L 236 136 Z M 236 40 " clip-rule="nonzero"/></clipPath><clipPath id="7f37c8c254"><path d="M 32.472656 1.273438 L 356.457031 4.667969 L 352.441406 387.898438 L 28.460938 384.503906 Z M 32.472656 1.273438 " clip-rule="nonzero"/></clipPath><clipPath id="bb1c32a5fa"><path d="M 233 161 L 286 161 L 286 350 L 233 350 Z M 233 161 " clip-rule="nonzero"/></clipPath><clipPath id="abb0da7fd5"><path d="M 32.472656 1.273438 L 356.457031 4.667969 L 352.441406 387.898438 L 28.460938 384.503906 Z M 32.472656 1.273438 " clip-rule="nonzero"/></clipPath><clipPath id="fac014631e"><path d="M 304 76 L 342.300781 76 L 342.300781 209 L 304 209 Z M 304 76 " clip-rule="nonzero"/></clipPath><clipPath id="b0d46b1194"><path d="M 32.472656 1.273438 L 356.457031 4.667969 L 352.441406 387.898438 L 28.460938 384.503906 Z M 32.472656 1.273438 " clip-rule="nonzero"/></clipPath><clipPath id="962e7487b8"><path d="M 303 234 L 342.300781 234 L 342.300781 315 L 303 315 Z M 303 234 " clip-rule="nonzero"/></clipPath><clipPath id="60d6ed38fc"><path d="M 32.472656 1.273438 L 356.457031 4.667969 L 352.441406 387.898438 L 28.460938 384.503906 Z M 32.472656 1.273438 " clip-rule="nonzero"/></clipPath></defs><g clip-path="url(#d8d714cdc9)"><g clip-path="url(#1b1440aa03)"><path fill="#15b5b0" d="M 31.230469 73.949219 L 80.320312 74.464844 L 79.453125 157.238281 L 30.363281 156.726562 Z M 31.230469 73.949219 " fill-opacity="1" fill-rule="nonzero"/></g></g><g clip-path="url(#61288d8c8c)"><g clip-path="url(#eabf83fde9)"><path fill="#e26890" d="M 30.085938 183.554688 L 79.171875 184.070312 L 77.835938 311.480469 L 28.75 310.96875 Z M 30.085938 183.554688 " fill-opacity="1" fill-rule="nonzero"/></g></g><g clip-path="url(#24d049ef1c)"><g clip-path="url(#5a9622182a)"><path fill="#15b5b0" d="M 100.1875 38.574219 L 149.15625 39.085938 L 147.15625 230.144531 L 98.1875 229.632812 Z M 100.1875 38.574219 " fill-opacity="1" fill-rule="nonzero"/></g></g><g clip-path="url(#48ab7cdc25)"><g clip-path="url(#e45500e5a7)"><path fill="#e26890" d="M 97.90625 256.460938 L 146.875 256.972656 L 145.917969 348.292969 L 96.949219 347.777344 Z M 97.90625 256.460938 " fill-opacity="1" fill-rule="nonzero"/></g></g><g clip-path="url(#1cd31920a9)"><g clip-path="url(#5d9969547c)"><path fill="#15b5b0" d="M 169.144531 3.199219 L 218.113281 3.710938 L 216.363281 170.707031 L 167.394531 170.191406 Z M 169.144531 3.199219 " fill-opacity="1" fill-rule="nonzero"/></g></g><g clip-path="url(#e1528c68ea)"><g clip-path="url(#5ff98b86b4)"><path fill="#e26890" d="M 167.113281 197.023438 L 216.082031 197.535156 L 214.117188 385.105469 L 165.152344 384.589844 Z M 167.113281 197.023438 " fill-opacity="1" fill-rule="nonzero"/></g></g><g clip-path="url(#10bfde9fcb)"><g clip-path="url(#7f37c8c254)"><path fill="#15b5b0" d="M 237.226562 40.007812 L 286.3125 40.523438 L 285.320312 135.332031 L 236.230469 134.816406 Z M 237.226562 40.007812 " fill-opacity="1" fill-rule="nonzero"/></g></g><g clip-path="url(#bb1c32a5fa)"><g clip-path="url(#abb0da7fd5)"><path fill="#e26890" d="M 235.953125 161.644531 L 285.039062 162.160156 L 283.074219 349.726562 L 233.988281 349.214844 Z M 235.953125 161.644531 " fill-opacity="1" fill-rule="nonzero"/></g></g><g clip-path="url(#fac014631e)"><g clip-path="url(#b0d46b1194)"><path fill="#15b5b0" d="M 305.546875 76.824219 L 354.632812 77.335938 L 353.261719 208.238281 L 304.175781 207.722656 Z M 305.546875 76.824219 " fill-opacity="1" fill-rule="nonzero"/></g></g><g clip-path="url(#962e7487b8)"><g clip-path="url(#60d6ed38fc)"><path fill="#e26890" d="M 303.894531 234.554688 L 352.980469 235.066406 L 352.152344 314.355469 L 303.0625 313.839844 Z M 303.894531 234.554688 " fill-opacity="1" fill-rule="nonzero"/></g></g></svg>